<?xml version="1.0" encoding="UTF-8" standalone="no"?>
<!-- Created with Inkscape (http://www.inkscape.org/) -->

<svg
   version="1.1"
   id="svg1"
   width="493.06052"
   height="120.02508"
   viewBox="0 0 493.06052 120.02508"
   sodipodi:docname="black.svg"
   inkscape:version="1.4 (e7c3feb100, 2024-10-09)"
   xmlns:inkscape="http://www.inkscape.org/namespaces/inkscape"
   xmlns:sodipodi="http://sodipodi.sourceforge.net/DTD/sodipodi-0.dtd"
   xmlns="http://www.w3.org/2000/svg"
   xmlns:svg="http://www.w3.org/2000/svg">
  <defs
     id="defs1" />
  <sodipodi:namedview
     id="namedview1"
     pagecolor="#ffffff"
     bordercolor="#999999"
     borderopacity="1"
     inkscape:showpageshadow="2"
     inkscape:pageopacity="0"
     inkscape:pagecheckerboard="0"
     inkscape:deskcolor="#d1d1d1"
     inkscape:zoom="1.592"
     inkscape:cx="250"
     inkscape:cy="250"
     inkscape:window-width="1888"
     inkscape:window-height="1014"
     inkscape:window-x="16"
     inkscape:window-y="50"
     inkscape:window-maximized="0"
     inkscape:current-layer="g1" />
  <g
     inkscape:groupmode="layer"
     inkscape:label="Image"
     id="g1"
     transform="translate(-4.0182968,-179.45225)">
    <path
       style="fill:#000000"
       d="m 301.1541,298.78558 c -0.36667,-0.36666 -0.66667,-1.49998 -0.66667,-2.51848 0,-2.52101 5.93087,-20.69867 13.61835,-41.73921 3.50144,-9.5834 6.23192,-17.55871 6.06772,-17.7229 -0.16419,-0.16419 -2.019,0.17652 -4.12181,0.75713 -2.1028,0.58061 -4.68797,0.82953 -5.74482,0.55316 -1.06071,-0.27738 -4.47462,0.84353 -7.62049,2.50208 -6.57554,3.46673 -10.94061,3.357 -14.93755,-0.37551 -6.44959,-6.02288 1.86126,-24.78977 9.85457,-22.25279 5.44914,1.72949 3.82747,8.48694 -3.14386,13.10034 -4.12431,2.72935 -4.68836,4.15602 -2.93693,7.42859 2.27803,4.25653 13.6068,0.13848 15.10643,-5.49124 1.01381,-3.8059 9.01229,-11.88921 13.98188,-14.13019 3.42972,-1.54659 4.38228,-1.59751 7.93712,-0.42431 5.06878,1.67285 5.38524,2.21714 3.45704,5.94587 -0.86024,1.66353 -5.42527,13.48924 -10.14451,26.27936 -11.43869,31.00125 -12.3826,33.75507 -11.56928,33.75298 0.38288,-9.8e-4 2.04382,-2.13848 3.69099,-4.75 11.22305,-17.79367 45.39588,-58.47152 48.29689,-57.49053 0.96543,0.32647 1.00948,0.77691 0.17436,1.78316 -1.38766,1.67203 -3.94693,11.08988 -3.92923,14.45916 0.0126,2.38951 0.17777,2.32031 3.73813,-1.56573 2.04875,-2.23615 5.45627,-6.19921 7.57226,-8.80681 2.77936,-3.42509 4.44479,-4.65591 6,-4.43427 1.92563,0.27444 2.18393,1.01891 2.44843,7.05681 0.16263,3.7125 0.61263,6.74785 1,6.74522 1.11862,-0.008 8.20431,-6.79111 8.20431,-7.85444 0,-2.16663 8.43162,-11.42318 11.61778,-12.75444 3.78136,-1.57995 7.38222,-0.52767 7.38222,2.15732 0,1.21676 0.3439,1.25852 1.97504,0.23985 3.69765,-2.30922 4.35877,0.0809 2.60749,9.42695 -0.87039,4.64497 -1.54501,10.66033 -1.49914,13.36747 0.0671,3.96208 0.73128,1.899 3.40531,-10.57793 1.82706,-8.525 4.26453,-19.17498 5.41661,-23.66661 2.93554,-11.44484 2.89473,-11.71587 -1.65531,-10.99437 -2.0625,0.32706 -6.3375,0.89653 -9.5,1.26549 -8.55461,0.99807 -7.26776,-1.18835 1.5,-2.54854 3.9875,-0.61861 8.60273,-1.33407 10.25608,-1.58991 2.62218,-0.40576 3.27012,-1.19953 5.07371,-6.21561 1.34412,-3.73825 2.70503,-5.87338 3.88918,-6.10175 1.5861,-0.30589 1.72144,0.0819 1.04709,3 -0.42595,1.84322 -0.82882,4.45133 -0.89526,5.7958 l -0.1208,2.4445 14,-0.0802 c 15.01538,-0.0861 14.57924,0.13351 -3.95748,1.99222 l -11.95749,1.199 -5.28557,20 c -2.90706,11 -6.49327,25.625 -7.96935,32.5 -3.06111,14.25747 -4.86349,17.85832 -4.03133,8.0539 0.44934,-5.294 0.24813,-6.66532 -1.12583,-7.67273 -1.38303,-1.01407 -1.65752,-2.96858 -1.58394,-11.27812 l 0.089,-10.05147 -7.34203,6.97421 c -5.83654,5.54414 -7.97573,6.97419 -10.43261,6.97419 -2.27025,0 -3.23227,-0.54173 -3.62431,-2.04089 -0.29354,-1.12249 -0.81391,-1.89555 -1.15638,-1.71791 -7.64088,3.96329 -9.45159,3.38158 -9.935,-3.19171 l -0.31232,-4.24682 -6.42188,6.16661 c -5.19167,4.98529 -6.95173,6.1057 -9.18769,5.84867 -2.61274,-0.30036 -2.76181,-0.58886 -2.69383,-5.21355 l 0.072,-4.8956 -2.36991,2.8956 c -7.71103,9.4215 -24.10619,31.97064 -32.64295,44.8956 -5.44901,8.25 -10.82358,16.0125 -11.94349,17.25 -1.95241,2.15741 -5.61979,2.98446 -7.02091,1.58333 z m 96.19986,-66.87767 c 4.08202,-4.46639 5.13347,-6.3172 5.13347,-9.03625 0,-1.88067 -0.48462,-3.41941 -1.07692,-3.41941 -2.85637,0 -11.0036,11.32233 -12.4901,17.35766 -0.64707,2.62716 -0.54236,2.77124 1.29812,1.78625 1.10108,-0.58928 4.31202,-3.59899 7.13543,-6.68825 z m -79.10575,0.91323 c 3.16932,-2.41735 9.23922,-10.67199 9.23922,-12.56467 0,-2.95168 -7.93805,2.16549 -12.25,7.89683 -2.84431,3.78058 -3.61286,7.29895 -1.59439,7.29895 0.63558,0 2.70791,-1.184 4.60517,-2.63111 z m -21.76078,-10.42465 c 0,-0.51933 -0.43844,-0.94424 -0.97432,-0.94424 -0.96941,0 -4.05435,5.1752 -3.99408,6.70034 0.044,1.11296 4.9684,-4.59218 4.9684,-5.7561 z M 49.614337,281.93914 c -11.011369,-3.3957 -15.986134,-14.59248 -11.183442,-25.17075 6.013214,-13.24453 27.381025,-13.59019 31.023867,-0.50186 0.857551,3.08108 0.748971,3.89078 -0.661873,4.93572 -2.480876,1.83746 -3.076189,1.57031 -3.795138,-1.70304 -1.262946,-5.75015 -7.412669,-11.04696 -12.825795,-11.04696 -5.554681,0 -10.684519,7.20549 -10.684519,15.00772 0,8.98531 6.530333,16.07527 15.408365,16.72881 6.517379,0.47976 10.526678,-1.90517 13.488607,-8.0237 6.180371,-12.76694 1.926799,-27.99869 -9.044737,-32.38863 -2.15082,-0.86059 -4.347454,-2.38101 -4.881408,-3.37871 -0.533955,-0.9977 -0.970827,-8.14359 -0.970827,-15.87975 0,-11.83621 -0.237761,-14.06574 -1.5,-14.06574 -0.825,0 -1.5,-0.45 -1.5,-1 0,-0.55 2.448442,-1 5.440983,-1 2.992541,0 5.719098,0.45 6.059017,1 0.339919,0.55 -0.08352,1 -0.940983,1 -2.299286,0 -2.327163,29.089 -0.03008,31.38608 1.501558,1.50156 3.729925,1.2638 6.221061,-0.66376 1.561444,-1.20819 1.793558,-29.26835 0.25,-30.22232 -2.409799,-1.48934 -0.590607,-2.5 4.500005,-2.5 3.025,0 5.5,0.45 5.5,1 0,0.55 -0.49001,1 -1.08892,1 -0.7666,0 -1.00827,8.65765 -0.81647,29.25 0.24174,25.95325 0.0767,29.70084 -1.46413,33.25 -4.571916,10.53087 -16.119373,16.18918 -26.503583,12.98689 z M 445.00575,243.09085 c -1.76345,-1.29084 -1.86196,-1.89915 -0.89452,-5.52368 l 1.08717,-4.07309 -4.82113,3.53904 c -5.77436,4.23876 -10.1178,5.66316 -13.42946,4.40407 -3.45382,-1.31314 -3.8992,-4.73707 -1.46312,-11.24808 4.42517,-11.82731 9.57045,-13.44776 5.97024,-1.88026 -2.29349,7.369 -2.50991,11.1434 -0.63894,11.1434 2.31223,0 10.30482,-5.87235 14.66584,-10.77536 2.31131,-2.59855 5.1495,-5.78303 6.30709,-7.07661 2.88876,-3.22812 6.33582,-4.41251 8.87976,-3.05103 1.7884,0.95712 1.97813,1.7555 1.48534,6.25014 -0.31073,2.83407 -0.86528,6.39036 -1.23235,7.90286 -0.36707,1.5125 -0.2646,2.75 0.22769,2.75 0.4923,0 1.70655,-3.15 2.69834,-7 1.44444,-5.60719 2.18492,-7 3.72148,-7 2.15421,0 2.49789,2.34524 0.943,6.4349 -0.53639,1.41081 -0.71966,2.5651 -0.40728,2.5651 0.31238,0 3.31925,-2.48977 6.68193,-5.53282 6.41194,-5.80247 10.06902,-7.49876 12.00119,-5.56659 0.87221,0.87221 0.45034,3.22709 -1.72692,9.63974 -1.5846,4.66708 -2.66713,8.69955 -2.40563,8.96105 0.2615,0.2615 3.49241,-1.6076 7.17979,-4.15355 3.68738,-2.54596 6.93891,-4.39442 7.22563,-4.1077 0.28672,0.28672 -2.90171,3.27498 -7.0854,6.64059 -11.7751,9.47258 -14.53171,8.05838 -10.1781,-5.22157 1.4506,-4.4248 2.44095,-8.24158 2.20078,-8.48174 -0.24016,-0.24017 -3.58313,2.60099 -7.4288,6.31368 -5.83308,5.63136 -7.7807,6.89766 -11.74916,7.63905 -3.05589,0.5709 -5.84337,1.93341 -7.7949,3.81011 -3.79692,3.65133 -7.3942,4.62011 -10.01956,2.69835 z m 6.84532,-3.27496 c 1.45,-1.45 2.63636,-2.97325 2.63636,-3.38499 0,-0.71218 -4.42294,-3.97865 -5.38726,-3.97865 -0.91582,0 -2.77977,7.12235 -2.23529,8.54124 0.80426,2.09585 1.99363,1.81495 4.98619,-1.1776 z m 6.53853,-9.51286 c 2.84888,-8.17228 0.064,-13.13227 -3.80302,-6.77342 -1.84388,3.03202 -1.78301,6.17939 0.16773,8.67264 1.54065,1.96911 2.45294,1.49249 3.63529,-1.89922 z M 6.3426017,211.39392 c 0.346656,-27.40555 0.261691,-29.13851 -1.493801,-30.46819 -1.662796,-1.25947 -1.167952,-1.40987 4.638636,-1.40987 5.6162503,0 6.2620673,0.18061 4.7500003,1.32844 -1.4981,1.13722 -1.75,3.08093 -1.75,13.50338 0,12.06804 0.01849,12.16504 2.105297,11.04822 2.990162,-1.60029 8.162078,-0.35217 10.984772,2.65091 2.104735,2.23924 2.45444,3.70031 2.761386,11.53712 0.621352,15.86405 -1.80209,20.86832 -10.106,20.86832 -2.39,0 -4.837143,-0.49169 -5.438096,-1.09264 -0.790187,-0.79019 -1.657779,-0.79019 -3.1342583,0 -1.12289,0.60095 -2.411491,1.09264 -2.863557,1.09264 -0.452067,0 -0.656537,-13.07625 -0.454379,-29.05833 z m 13.9448353,26.85833 c 1.263655,-1.26365 1.771595,-27.14687 0.593011,-30.21821 -0.717123,-1.8688 -5.454553,-2.12025 -7.193011,-0.38179 -1.518022,1.51802 -1.659053,27.07373 -0.164816,29.86574 1.15713,2.16212 4.927696,2.57138 6.764816,0.73426 z m 14.556999,1.26187 c -4.485649,-1.92207 -5.356999,-4.72441 -5.356999,-17.22861 0,-10.94933 0.159032,-11.90662 2.413416,-14.5275 2.159622,-2.51071 3.062586,-2.80576 8.586584,-2.80576 5.523998,0 6.426962,0.29505 8.586584,2.80576 1.740018,2.0229 2.413416,4.00257 2.413416,7.09502 0,5.77878 -2.201965,7.62584 -9.926122,8.32624 l -6.073878,0.55076 v 5.83806 c 0,5.10356 0.310496,6.0415 2.467957,7.45512 3.421196,2.24166 7.581859,0.77895 9.532043,-3.35105 1.753848,-3.71421 4.51194,-4.48632 3.464675,-0.96991 -1.222862,4.10601 -4.927097,6.94282 -9.596973,7.34964 -2.402236,0.20927 -5.332053,-0.0327 -6.510703,-0.53777 z m 10.443001,-19.26187 c 0.66,-0.66 1.2,-3.15545 1.2,-5.54545 0,-3.28036 -0.601623,-4.94708 -2.454545,-6.8 -4.910802,-4.91081 -8.545455,-2.16732 -8.545455,6.45021 0,3.16905 0.3,6.06191 0.666667,6.42857 1.129619,1.12962 7.863606,0.7364 9.133333,-0.53333 z m 39.123073,17.27692 c -2.90655,-2.90655 -2.92307,-2.99102 -2.92307,-14.94423 0,-11.02715 0.18618,-12.23761 2.25156,-14.63876 4.46155,-5.18686 15.2756,-4.24276 18.2956,1.59726 1.7629,3.40911 1.99421,20.05736 0.34442,24.78997 -2.2796,6.53929 -12.76085,8.40341 -17.96851,3.19576 z m 10.87693,0.72308 c 0.82497,-0.82497 1.2,-5.8144 1.2,-15.96482 0,-13.57408 -0.15599,-14.8483 -1.93426,-15.8 -2.62788,-1.40639 -3.65158,-1.30648 -5.49431,0.53625 -2.36891,2.3689 -2.29901,27.96713 0.0836,30.59983 1.90471,2.10469 4.41248,2.36127 6.14501,0.62874 z m 10.19999,1.2 c 0,-0.55 0.45,-1 1,-1 0.6171,0 1,-5.1501 1,-13.45031 0,-11.15827 -0.2664,-13.5994 -1.56334,-14.3252 -1.275,-0.71352 -0.85308,-1.34491 2.28758,-3.4233 3.18219,-2.10588 4.94491,-2.52676 10.15086,-2.42371 5.58475,0.11054 6.57381,0.44309 8.71242,2.92937 2.29691,2.67032 2.41248,3.46307 2.41248,16.54891 0,9.35663 0.38308,14.12732 1.2,14.94424 0.93333,0.93333 0.6965,1.2 -1.06574,1.2 -1.24616,0 -3.13616,-0.46583 -4.2,-1.03518 -1.77549,-0.95022 -1.93426,-2.22252 -1.93426,-15.5 0,-13.13149 -0.18436,-14.64918 -2,-16.46482 -2.48298,-2.48298 -4.21073,-2.52961 -6.34501,-0.17126 -1.38168,1.52674 -1.65499,4.25156 -1.65499,16.5 0,9.11417 0.37877,14.67126 1,14.67126 0.55,0 1,0.45 1,1 0,0.55 -2.25,1 -5,1 -2.75,0 -5,-0.45 -5,-1 z m 28.32518,-1.39671 c -2.67775,-2.30331 -2.80087,-2.82107 -3.15903,-13.28498 -0.47712,-13.93966 0.8081,-17.6311 6.7593,-19.41412 3.08543,-0.92442 4.68935,-0.9451 6.5775,-0.0848 l 2.49705,1.13773 v -12.47856 c 0,-10.42539 -0.2468,-12.47856 -1.5,-12.47856 -0.825,0 -1.5,-0.45 -1.5,-1 0,-0.55 2.475,-1 5.5,-1 3.025,0 5.5,0.45 5.5,1 0,0.55 -0.475,1 -1.05555,1 -0.72378,0 -0.95951,9.27231 -0.75,29.50078 0.16805,16.22542 -0.0615,29.50042 -0.51019,29.5 -0.44866,-4.3e-4 -1.73447,-0.49247 -2.85736,-1.09342 -1.47648,-0.79019 -2.34407,-0.79019 -3.13426,0 -2.05669,2.05669 -9.35501,1.28712 -12.36746,-1.30407 z m 11.63964,-0.53755 c 0.56935,-1.06384 1.03518,-7.98374 1.03518,-15.37755 0,-14.74346 -0.49964,-16.10554 -5.68953,-15.51045 l -2.81047,0.32226 -0.27739,14.86454 c -0.18867,10.1102 0.0904,15.30766 0.87245,16.25 1.67319,2.01608 5.66786,1.69696 6.86976,-0.5488 z m 10.03518,0.43426 v -2.5 h 13 13 v 2.5 2.5 h -13 -13 z m 35.31537,1.49302 c -3.73458,-1.5047 -4.31537,-4.18662 -4.31537,-19.92728 v -15.06574 h -2.5 c -1.375,0 -2.5,-0.45 -2.5,-1 0,-0.55 1.1503,-1 2.55623,-1 2.06804,0 2.93639,-0.85941 4.54679,-4.5 1.09482,-2.475 2.41951,-4.5 2.94377,-4.5 0.52427,0 0.95321,2.025 0.95321,4.5 v 4.5 h 4 c 2.2,0 4,0.45 4,1 0,0.55 -1.8,1 -4,1 h -4 v 14.77749 c 0,11.75632 0.31826,15.23188 1.5567,17 1.94218,2.77286 3.44374,2.7966 6.8611,0.10851 3.61348,-2.84237 4.2687,-1.84522 0.96099,1.46248 -2.76528,2.76529 -6.79507,3.3643 -11.06342,1.64454 z m 12.68463,0.007 c 0,-0.55 0.45,-1 1,-1 0.64327,0 1,-10.16667 1,-28.5 0,-25.14617 -0.18346,-28.5 -1.55902,-28.5 -0.85746,0 -1.2809,-0.45 -0.94098,-1 0.33992,-0.55 2.81492,-1 5.5,-1 2.68508,0 5.16008,0.45 5.5,1 0.33992,0.55 -0.0835,1 -0.94098,1 -1.32775,0 -1.55902,1.82943 -1.55902,12.33227 v 12.33228 l 5.25973,-0.43618 c 4.69811,-0.38961 5.55233,-0.14358 8,2.30409 2.72348,2.72348 2.74027,2.82521 2.74027,16.6039 0,8.57576 0.38142,13.86364 1,13.86364 0.55,0 1,0.45 1,1 0,0.55 -2.25,1 -5,1 -2.75,0 -5,-0.45 -5,-1 0,-0.55 0.45,-1 1,-1 1.35126,0 1.31904,-27.53535 -0.0352,-30.06574 -0.6618,-1.23662 -2.09181,-1.93426 -3.9648,-1.93426 -1.87299,0 -3.303,0.69764 -3.96482,1.93426 -1.49678,2.79676 -1.35501,29.34591 0.16482,30.86574 0.93333,0.93333 0.0444,1.2 -4,1.2 -2.86,0 -5.2,-0.45 -5.2,-1 z m 31.357,0.0619 c -4.48565,-1.9221 -5.357,-4.72444 -5.357,-17.22864 0,-10.94933 0.15903,-11.90662 2.41342,-14.5275 2.15962,-2.51071 3.06258,-2.80576 8.58658,-2.80576 5.524,0 6.42696,0.29505 8.58658,2.80576 1.74002,2.0229 2.41342,4.00257 2.41342,7.09502 0,5.77878 -2.20196,7.62584 -9.92612,8.32624 l -6.07388,0.55076 v 5.83806 c 0,5.10356 0.3105,6.0415 2.46796,7.45512 3.42119,2.24166 7.58186,0.77895 9.53204,-3.35105 1.75385,-3.71421 4.51194,-4.48632 3.46467,-0.96991 -1.22286,4.10601 -4.92709,6.94282 -9.59697,7.34964 -2.40223,0.20927 -5.33205,-0.0327 -6.5107,-0.53777 z m 10.443,-19.2619 c 0.66,-0.66 1.2,-3.15545 1.2,-5.54545 0,-3.28036 -0.60162,-4.94708 -2.45455,-6.8 -4.9108,-4.91081 -8.54545,-2.16732 -8.54545,6.45021 0,3.16905 0.3,6.06191 0.66667,6.42857 1.12962,1.12962 7.8636,0.7364 9.13333,-0.53333 z m 7.2,17.7 v -2.5 h 13 13 v 2.5 2.5 h -13 -13 z m 178.30614,-25.14461 c -1.00507,-2.61917 4.63581,-5.87637 6.09314,-3.51836 0.76194,1.23284 -2.27331,5.16297 -3.98737,5.16297 -0.81107,0 -1.75867,-0.74007 -2.10577,-1.64461 z"
       id="path1" />
  </g>
</svg>
